<mxfile host="app.diagrams.net" modified="2020-11-21T06:41:32.444Z" agent="5.0 (X11; Linux x86_64) AppleWebKit/537.36 (KHTML, like Gecko) Chrome/85.0.4183.121 Safari/537.36" etag="N6y_Ttuw7zjmk04xHw_j" version="13.10.0" type="github">
  <diagram id="L2OwRtWCqbbFWKRyDuCU" name="Page-1">
    <mxGraphModel dx="1632" dy="745" grid="1" gridSize="10" guides="1" tooltips="1" connect="1" arrows="1" fold="1" page="1" pageScale="1" pageWidth="850" pageHeight="1100" math="0" shadow="0">
      <root>
        <mxCell id="0" />
        <mxCell id="1" parent="0" />
        <mxCell id="Dos0uHQrxulg-SSTLhEj-5" value="Admin" style="shape=umlActor;verticalLabelPosition=bottom;verticalAlign=top;html=1;outlineConnect=0;" vertex="1" parent="1">
          <mxGeometry y="315" width="30" height="60" as="geometry" />
        </mxCell>
        <mxCell id="Dos0uHQrxulg-SSTLhEj-6" value="CRUD thông tin &lt;br&gt;sảnh cưới" style="ellipse;whiteSpace=wrap;html=1;" vertex="1" parent="1">
          <mxGeometry x="80" y="220" width="120" height="45" as="geometry" />
        </mxCell>
        <mxCell id="Dos0uHQrxulg-SSTLhEj-7" value="CRUD thông tin &lt;br&gt;dịch vụ" style="ellipse;whiteSpace=wrap;html=1;" vertex="1" parent="1">
          <mxGeometry x="110" y="420" width="120" height="45" as="geometry" />
        </mxCell>
        <mxCell id="Dos0uHQrxulg-SSTLhEj-8" value="CRUD thông tin&amp;nbsp;&lt;br&gt;menu" style="ellipse;whiteSpace=wrap;html=1;" vertex="1" parent="1">
          <mxGeometry x="100" y="315" width="120" height="45" as="geometry" />
        </mxCell>
        <mxCell id="Dos0uHQrxulg-SSTLhEj-9" value="" style="endArrow=open;endFill=1;endSize=12;html=1;entryX=0;entryY=0.5;entryDx=0;entryDy=0;" edge="1" parent="1" target="Dos0uHQrxulg-SSTLhEj-6" source="Dos0uHQrxulg-SSTLhEj-5">
          <mxGeometry width="160" relative="1" as="geometry">
            <mxPoint x="390" y="425" as="sourcePoint" />
            <mxPoint x="400" y="471.17647058823536" as="targetPoint" />
          </mxGeometry>
        </mxCell>
        <mxCell id="Dos0uHQrxulg-SSTLhEj-10" value="" style="endArrow=open;endFill=1;endSize=12;html=1;entryX=0;entryY=0.5;entryDx=0;entryDy=0;" edge="1" parent="1" target="Dos0uHQrxulg-SSTLhEj-8" source="Dos0uHQrxulg-SSTLhEj-5">
          <mxGeometry width="160" relative="1" as="geometry">
            <mxPoint x="380" y="435" as="sourcePoint" />
            <mxPoint x="320" y="296.25" as="targetPoint" />
          </mxGeometry>
        </mxCell>
        <mxCell id="Dos0uHQrxulg-SSTLhEj-11" value="" style="endArrow=open;endFill=1;endSize=12;html=1;entryX=0;entryY=0.5;entryDx=0;entryDy=0;" edge="1" parent="1" target="Dos0uHQrxulg-SSTLhEj-7" source="Dos0uHQrxulg-SSTLhEj-5">
          <mxGeometry width="160" relative="1" as="geometry">
            <mxPoint x="380" y="465" as="sourcePoint" />
            <mxPoint x="323.03999999999996" y="366.995" as="targetPoint" />
          </mxGeometry>
        </mxCell>
        <mxCell id="Dos0uHQrxulg-SSTLhEj-13" value="Thêm sảnh cưới và thông tin liên quan" style="ellipse;whiteSpace=wrap;html=1;" vertex="1" parent="1">
          <mxGeometry x="366.92" y="60" width="120" height="50" as="geometry" />
        </mxCell>
        <mxCell id="Dos0uHQrxulg-SSTLhEj-14" value="Xóa thông tin &lt;br&gt;sảnh cưới" style="ellipse;whiteSpace=wrap;html=1;" vertex="1" parent="1">
          <mxGeometry x="436.92" y="130" width="120" height="40" as="geometry" />
        </mxCell>
        <mxCell id="Dos0uHQrxulg-SSTLhEj-15" value="Update thông tin &lt;br&gt;sảnh cưới" style="ellipse;whiteSpace=wrap;html=1;" vertex="1" parent="1">
          <mxGeometry x="466.92" y="190" width="120" height="45" as="geometry" />
        </mxCell>
        <mxCell id="Dos0uHQrxulg-SSTLhEj-16" value="Thêm thông tin Menu" style="ellipse;whiteSpace=wrap;html=1;" vertex="1" parent="1">
          <mxGeometry x="466.92" y="260" width="120" height="50" as="geometry" />
        </mxCell>
        <mxCell id="Dos0uHQrxulg-SSTLhEj-17" value="Xóa thông tin Menu" style="ellipse;whiteSpace=wrap;html=1;" vertex="1" parent="1">
          <mxGeometry x="480" y="325" width="120" height="40" as="geometry" />
        </mxCell>
        <mxCell id="Dos0uHQrxulg-SSTLhEj-18" value="Update thông tin &lt;br&gt;sảnh cưới" style="ellipse;whiteSpace=wrap;html=1;" vertex="1" parent="1">
          <mxGeometry x="466.92" y="380" width="120" height="45" as="geometry" />
        </mxCell>
        <mxCell id="Dos0uHQrxulg-SSTLhEj-19" value="Hiển thị danh sách&lt;br&gt;sảnh cưới" style="ellipse;whiteSpace=wrap;html=1;" vertex="1" parent="1">
          <mxGeometry x="240" y="170" width="120" height="50" as="geometry" />
        </mxCell>
        <mxCell id="Dos0uHQrxulg-SSTLhEj-21" value="&amp;lt;&amp;lt;extend&amp;gt;&amp;gt;" style="endArrow=open;endSize=12;dashed=1;html=1;" edge="1" parent="1" source="Dos0uHQrxulg-SSTLhEj-13" target="Dos0uHQrxulg-SSTLhEj-19">
          <mxGeometry width="160" relative="1" as="geometry">
            <mxPoint x="336.92" y="282.5" as="sourcePoint" />
            <mxPoint x="349.9969230769231" y="161.9230769230769" as="targetPoint" />
          </mxGeometry>
        </mxCell>
        <mxCell id="Dos0uHQrxulg-SSTLhEj-23" value="&amp;lt;&amp;lt;extend&amp;gt;&amp;gt;" style="endArrow=open;endSize=12;dashed=1;html=1;exitX=0;exitY=0.5;exitDx=0;exitDy=0;" edge="1" parent="1" source="Dos0uHQrxulg-SSTLhEj-14" target="Dos0uHQrxulg-SSTLhEj-19">
          <mxGeometry width="160" relative="1" as="geometry">
            <mxPoint x="413.8430769230769" y="118.0769230769231" as="sourcePoint" />
            <mxPoint x="380.92" y="172" as="targetPoint" />
          </mxGeometry>
        </mxCell>
        <mxCell id="Dos0uHQrxulg-SSTLhEj-24" value="&amp;lt;&amp;lt;extend&amp;gt;&amp;gt;" style="endArrow=open;endSize=12;dashed=1;html=1;exitX=0;exitY=0.5;exitDx=0;exitDy=0;entryX=1;entryY=0.5;entryDx=0;entryDy=0;" edge="1" parent="1" source="Dos0uHQrxulg-SSTLhEj-15" target="Dos0uHQrxulg-SSTLhEj-19">
          <mxGeometry width="160" relative="1" as="geometry">
            <mxPoint x="446.92" y="160" as="sourcePoint" />
            <mxPoint x="381.3702109449718" y="195.50111211081594" as="targetPoint" />
          </mxGeometry>
        </mxCell>
        <mxCell id="Dos0uHQrxulg-SSTLhEj-25" value="Hiển thị danh sách&lt;br&gt;Menu" style="ellipse;whiteSpace=wrap;html=1;" vertex="1" parent="1">
          <mxGeometry x="290" y="310" width="120" height="50" as="geometry" />
        </mxCell>
        <mxCell id="Dos0uHQrxulg-SSTLhEj-26" value="&amp;lt;&amp;lt;include&amp;gt;&amp;gt;" style="endArrow=open;endSize=12;dashed=1;html=1;exitX=-0.008;exitY=0.72;exitDx=0;exitDy=0;entryX=0.983;entryY=0.378;entryDx=0;entryDy=0;entryPerimeter=0;exitPerimeter=0;" edge="1" parent="1" source="Dos0uHQrxulg-SSTLhEj-19" target="Dos0uHQrxulg-SSTLhEj-6">
          <mxGeometry width="160" relative="1" as="geometry">
            <mxPoint x="430" y="222.5" as="sourcePoint" />
            <mxPoint x="337.89650459246604" y="211.5616038538128" as="targetPoint" />
          </mxGeometry>
        </mxCell>
        <mxCell id="Dos0uHQrxulg-SSTLhEj-27" value="&amp;lt;&amp;lt;extend&amp;gt;&amp;gt;" style="endArrow=open;endSize=12;dashed=1;html=1;exitX=0;exitY=0.5;exitDx=0;exitDy=0;entryX=0.942;entryY=0.26;entryDx=0;entryDy=0;entryPerimeter=0;" edge="1" parent="1" source="Dos0uHQrxulg-SSTLhEj-16" target="Dos0uHQrxulg-SSTLhEj-25">
          <mxGeometry width="160" relative="1" as="geometry">
            <mxPoint x="446.9200000000001" y="160" as="sourcePoint" />
            <mxPoint x="356.986650849901" y="189.45294640995928" as="targetPoint" />
          </mxGeometry>
        </mxCell>
        <mxCell id="Dos0uHQrxulg-SSTLhEj-28" value="&amp;lt;&amp;lt;extend&amp;gt;&amp;gt;" style="endArrow=open;endSize=12;dashed=1;html=1;exitX=0;exitY=0.5;exitDx=0;exitDy=0;entryX=0.983;entryY=0.66;entryDx=0;entryDy=0;entryPerimeter=0;" edge="1" parent="1" source="Dos0uHQrxulg-SSTLhEj-17" target="Dos0uHQrxulg-SSTLhEj-25">
          <mxGeometry width="160" relative="1" as="geometry">
            <mxPoint x="476.9200000000001" y="295" as="sourcePoint" />
            <mxPoint x="403.03999999999996" y="333" as="targetPoint" />
          </mxGeometry>
        </mxCell>
        <mxCell id="Dos0uHQrxulg-SSTLhEj-30" value="&amp;lt;&amp;lt;extend&amp;gt;&amp;gt;" style="endArrow=open;endSize=12;dashed=1;html=1;exitX=0.009;exitY=0.356;exitDx=0;exitDy=0;entryX=1;entryY=1;entryDx=0;entryDy=0;exitPerimeter=0;" edge="1" parent="1" source="Dos0uHQrxulg-SSTLhEj-18" target="Dos0uHQrxulg-SSTLhEj-25">
          <mxGeometry width="160" relative="1" as="geometry">
            <mxPoint x="490" y="355" as="sourcePoint" />
            <mxPoint x="407.96000000000004" y="353" as="targetPoint" />
          </mxGeometry>
        </mxCell>
        <mxCell id="Dos0uHQrxulg-SSTLhEj-31" value="&amp;lt;&amp;lt;include&amp;gt;&amp;gt;" style="endArrow=open;endSize=12;dashed=1;html=1;exitX=0;exitY=0.5;exitDx=0;exitDy=0;entryX=1;entryY=0.5;entryDx=0;entryDy=0;" edge="1" parent="1" source="Dos0uHQrxulg-SSTLhEj-25" target="Dos0uHQrxulg-SSTLhEj-8">
          <mxGeometry width="160" relative="1" as="geometry">
            <mxPoint x="478" y="406.02" as="sourcePoint" />
            <mxPoint x="392.42640687119297" y="362.6776695296637" as="targetPoint" />
          </mxGeometry>
        </mxCell>
        <mxCell id="Dos0uHQrxulg-SSTLhEj-32" value="Thêm thông tin&lt;br&gt;dịch vụ" style="ellipse;whiteSpace=wrap;html=1;" vertex="1" parent="1">
          <mxGeometry x="476.92" y="450" width="120" height="50" as="geometry" />
        </mxCell>
        <mxCell id="Dos0uHQrxulg-SSTLhEj-33" value="Xóa thông tin&lt;br&gt;dịch vụ" style="ellipse;whiteSpace=wrap;html=1;" vertex="1" parent="1">
          <mxGeometry x="490" y="515" width="120" height="40" as="geometry" />
        </mxCell>
        <mxCell id="Dos0uHQrxulg-SSTLhEj-34" value="Update thông tin &lt;br&gt;dịch vụ" style="ellipse;whiteSpace=wrap;html=1;" vertex="1" parent="1">
          <mxGeometry x="476.92" y="570" width="120" height="45" as="geometry" />
        </mxCell>
        <mxCell id="Dos0uHQrxulg-SSTLhEj-35" value="Hiển thị danh sách&lt;br&gt;dịch vụ" style="ellipse;whiteSpace=wrap;html=1;" vertex="1" parent="1">
          <mxGeometry x="300" y="500" width="120" height="50" as="geometry" />
        </mxCell>
        <mxCell id="Dos0uHQrxulg-SSTLhEj-36" value="&amp;lt;&amp;lt;extend&amp;gt;&amp;gt;" style="endArrow=open;endSize=12;dashed=1;html=1;exitX=0;exitY=0.5;exitDx=0;exitDy=0;entryX=0.942;entryY=0.26;entryDx=0;entryDy=0;entryPerimeter=0;" edge="1" source="Dos0uHQrxulg-SSTLhEj-32" target="Dos0uHQrxulg-SSTLhEj-35" parent="1">
          <mxGeometry width="160" relative="1" as="geometry">
            <mxPoint x="456.9200000000001" y="350" as="sourcePoint" />
            <mxPoint x="366.986650849901" y="379.4529464099593" as="targetPoint" />
          </mxGeometry>
        </mxCell>
        <mxCell id="Dos0uHQrxulg-SSTLhEj-37" value="&amp;lt;&amp;lt;extend&amp;gt;&amp;gt;" style="endArrow=open;endSize=12;dashed=1;html=1;exitX=0;exitY=0.5;exitDx=0;exitDy=0;entryX=0.983;entryY=0.66;entryDx=0;entryDy=0;entryPerimeter=0;" edge="1" source="Dos0uHQrxulg-SSTLhEj-33" target="Dos0uHQrxulg-SSTLhEj-35" parent="1">
          <mxGeometry width="160" relative="1" as="geometry">
            <mxPoint x="486.9200000000001" y="485" as="sourcePoint" />
            <mxPoint x="413.03999999999996" y="523" as="targetPoint" />
          </mxGeometry>
        </mxCell>
        <mxCell id="Dos0uHQrxulg-SSTLhEj-38" value="&amp;lt;&amp;lt;extend&amp;gt;&amp;gt;" style="endArrow=open;endSize=12;dashed=1;html=1;exitX=0.009;exitY=0.356;exitDx=0;exitDy=0;entryX=1;entryY=1;entryDx=0;entryDy=0;exitPerimeter=0;" edge="1" source="Dos0uHQrxulg-SSTLhEj-34" target="Dos0uHQrxulg-SSTLhEj-35" parent="1">
          <mxGeometry width="160" relative="1" as="geometry">
            <mxPoint x="500" y="545" as="sourcePoint" />
            <mxPoint x="417.96000000000004" y="543" as="targetPoint" />
          </mxGeometry>
        </mxCell>
        <mxCell id="Dos0uHQrxulg-SSTLhEj-39" value="&amp;lt;&amp;lt;include&amp;gt;&amp;gt;" style="endArrow=open;endSize=12;dashed=1;html=1;exitX=0;exitY=0.5;exitDx=0;exitDy=0;entryX=1;entryY=1;entryDx=0;entryDy=0;" edge="1" parent="1" source="Dos0uHQrxulg-SSTLhEj-35" target="Dos0uHQrxulg-SSTLhEj-7">
          <mxGeometry width="160" relative="1" as="geometry">
            <mxPoint x="300" y="345" as="sourcePoint" />
            <mxPoint x="230" y="347.5" as="targetPoint" />
          </mxGeometry>
        </mxCell>
        <mxCell id="Dos0uHQrxulg-SSTLhEj-41" style="edgeStyle=orthogonalEdgeStyle;rounded=0;orthogonalLoop=1;jettySize=auto;html=1;exitX=0.5;exitY=1;exitDx=0;exitDy=0;" edge="1" parent="1">
          <mxGeometry relative="1" as="geometry">
            <mxPoint x="160" y="540" as="sourcePoint" />
            <mxPoint x="160" y="540" as="targetPoint" />
          </mxGeometry>
        </mxCell>
        <mxCell id="Dos0uHQrxulg-SSTLhEj-43" value="Gửi thông tin đặt tiệc" style="ellipse;whiteSpace=wrap;html=1;" vertex="1" parent="1">
          <mxGeometry x="70" y="150" width="120" height="50" as="geometry" />
        </mxCell>
        <mxCell id="Dos0uHQrxulg-SSTLhEj-44" value="" style="endArrow=open;endFill=1;endSize=12;html=1;exitX=0.042;exitY=0.82;exitDx=0;exitDy=0;exitPerimeter=0;" edge="1" parent="1" source="Dos0uHQrxulg-SSTLhEj-43">
          <mxGeometry width="160" relative="1" as="geometry">
            <mxPoint x="40" y="331.3461538461538" as="sourcePoint" />
            <mxPoint x="30" y="310" as="targetPoint" />
          </mxGeometry>
        </mxCell>
      </root>
    </mxGraphModel>
  </diagram>
</mxfile>
